#------------------------------------------------------------------------------------------------
# "Cube_vni.obj" test model by Squirrel Eiserloh
#
# Unit cube (from 0,0,0 to 1,1,1) test object
#	- minimal vertexes and normals (indexed optimally for maximum re-use)
#	- explicit triangles (two per face), no quads or polys
#	- no texCoords
#	- already in engine orientation (x-forward, y-left, z-up) and scale (1.0 = 1m)

#------------------------------------------------------------------------------------------------
# Meta-Tags (ignored by all but my engine)
#------------------------------------------------------------------------------------------------
#SquirrelMeta orientation x=forward y=left z=up
#SquirrelMeta scale unitsPerMeter=1

#------------------------------------------------------------------------------------------------
# VERTEX POSITIONS (v) IN FORMAT: x y z
#------------------------------------------------------------------------------------------------
# Bottom (-z) vertex positions (1-4)
v 0 0 0
v 0 1 0
v 1 1 0
v 1 0 0

# Top (+z) vertex positions (5-8)
v 0 0 1
v 1 0 1
v 1 1 1
v 0 1 1

#------------------------------------------------------------------------------------------------
# VERTEX NORMALS (vn) IN FORMAT: x y z
#------------------------------------------------------------------------------------------------
vn 1 0 0
vn -1 0 0
vn 0 1 0
vn 0 -1 0
vn 0 0 1
vn 0 0 -1

#------------------------------------------------------------------------------------------------
# TRIANGLE FACES (f) IN FORMAT: v1//n1 v2//n2 v3//n3
#------------------------------------------------------------------------------------------------
# Bottom (-z) face vertex indexes
f 1//6 2//6 3//6
f 1//6 3//6 4//6

# Top (+z) face vertex indexes
f 5//5 6//5 7//5
f 5//5 7//5 8//5

# Front (+x) face vertex indexes
f 4//1 3//1 7//1
f 4//1 7//1 6//1

# Back (-x) face vertex indexes
f 1//2 5//2 8//2
f 1//2 8//2 2//2

# Left (+y) face vertex indexes
f 2//3 8//3 7//3
f 2//3 7//3 3//3

# Right (-y) face vertex indexes
f 1//4 4//4 6//4
f 1//4 6//4 5//4

